<?xml version="1.0" encoding="UTF-8"?><svg id="Layer_1" xmlns="http://www.w3.org/2000/svg" width="1024" height="1024" viewBox="0 0 1024 1024"><defs><style>.cls-1{fill:#fff;}</style></defs><path class="cls-1" d="M1024,0v1024H0V0h1024ZM307.8,267.3c-84.37,9.64-90.27,131.55-7.04,148.44,139.99,2.19,280.61,1.89,420.64.15,86.91-16.96,78.94-143.44-10.85-148.94l-402.75.35ZM304.79,461.29c-87.31,12.68-83.19,140.51,4.66,147.75l404.92-.18c87.23-9.07,92.17-133.37,5.01-147.75l-414.58.17ZM719,653h-401v1h401v-1ZM306.5,801h408.5l-15.54-2.04c-122.27.75-245.75-1.28-367.91,1.09l-31.54-1.04,6.49,1.99Z"/><path d="M307.8,267.3l402.75-.35c89.79,5.51,97.76,131.98,10.85,148.94-140.03,1.74-280.65,2.04-420.64-.15-83.22-16.89-77.32-138.8,7.04-148.44Z"/><path d="M304.79,461.29l414.58-.17c87.16,14.38,82.22,138.68-5.01,147.75l-404.92.18c-87.85-7.24-91.97-135.08-4.66-147.75Z"/><path d="M306.5,801l-6.49-1.99,31.54,1.04c122.16-2.37,245.64-.34,367.91-1.09l15.54,2.04h-408.5Z"/><rect x="318" y="653" width="401" height="1"/></svg>